<?xml version="1.0" standalone="no"?>
<svg viewBox="0 0 200 200" xmlns="http://www.w3.org/2000/svg">
  <path fill="#FD9827" d="M35.6,-56.8C45.2,-56.1,51.6,-44.7,56.2,-33.5C60.8,-22.3,63.8,-11.1,68.1,2.5C72.4,16.1,77.9,32.1,70.3,38.2C62.6,44.2,41.7,40.2,27.8,47.1C13.9,54.1,7,72.1,-0.9,73.7C-8.8,75.3,-17.5,60.4,-26.8,50.8C-36.1,41.1,-45.9,36.6,-52,29C-58.2,21.4,-60.8,10.7,-58.8,1.1C-56.8,-8.4,-50.2,-16.8,-44.9,-25.8C-39.5,-34.9,-35.4,-44.5,-28.1,-46.5C-20.8,-48.6,-10.4,-43.1,1.3,-45.3C13,-47.5,26,-57.5,35.6,-56.8Z" transform="translate(100 100)" />
</svg>
